<svg width="292" height="66" viewBox="0 0 292 66" fill="none" xmlns="http://www.w3.org/2000/svg">
<g clip-path="url(#clip0_778_4387)">
<path d="M65.52 11.28C54.9523 17.5994 44.2604 22.9978 33.2574 65.5291C33.2574 15.8317 49.9386 4.67353 57.765 -0.00683594L58.2574 8.12778L65.52 11.28Z" fill="#0A0F14"/>
<path d="M32.7555 33.2873V7.70605C34.7074 10.7628 35.1689 13.5804 40.0801 15.6156C36.1348 20.3427 34.8846 27.0976 32.7555 33.2873Z" fill="#0A0F14"/>
<path d="M65.52 27.9747C61.7388 26.9253 57.969 25.9708 53.8903 23.8994C52.8977 24.6778 48.3333 30.9656 47.4802 34.4936C52.7911 38.5671 57.5482 40.0391 60.8496 40.9554L59.2925 32.966L65.52 27.9747Z" fill="#0A0F14"/>
<path d="M32.7397 7.65234C35.6292 10.6451 36.4442 11.8121 40.0642 15.5614C36.119 20.2885 34.8689 27.0433 32.7397 33.2334C30.6106 27.0433 29.3604 20.2885 25.4152 15.5614C29.0352 11.8121 29.8502 10.6451 32.7397 7.65234Z" fill="#0A0F14"/>
<path d="M-0.0128746 11.28C10.5549 17.5994 21.2467 22.9978 32.2498 65.5291C32.2498 15.8317 15.5685 4.67353 7.74208 -0.00683594L7.24971 8.12778L-0.0128746 11.28Z" fill="#0A0F14"/>
<path d="M-0.0175686 27.9747C3.76361 26.9253 7.53343 25.9708 11.6121 23.8994C12.6047 24.6778 17.1691 30.9656 18.0222 34.4936C12.7113 38.5671 7.95418 40.0391 4.65285 40.9554L6.20994 32.966L-0.0175686 27.9747Z" fill="#0A0F14"/>
</g>
<path d="M118.62 18.6775L108.134 47.2676H101.171L90.6855 18.6775H96.8295L104.694 41.4103L112.517 18.6775H118.62ZM142.334 35.4301C142.334 36.2493 142.279 36.9866 142.17 37.642H125.581C125.717 39.2804 126.291 40.5638 127.301 41.4922C128.312 42.4206 129.554 42.8849 131.029 42.8849C133.158 42.8849 134.674 41.9701 135.575 40.1405H141.76C141.105 42.3251 139.849 44.1273 137.992 45.5473C136.135 46.9399 133.855 47.6362 131.151 47.6362C128.967 47.6362 127.001 47.1584 125.253 46.2026C123.533 45.2196 122.181 43.8406 121.198 42.0657C120.242 40.2907 119.765 38.2427 119.765 35.9217C119.765 33.5733 120.242 31.5116 121.198 29.7367C122.154 27.9618 123.492 26.5964 125.212 25.6407C126.933 24.685 128.912 24.2071 131.151 24.2071C133.309 24.2071 135.234 24.6713 136.927 25.5997C138.647 26.5282 139.971 27.8525 140.9 29.5729C141.856 31.2659 142.334 33.2183 142.334 35.4301ZM136.394 33.7917C136.367 32.3172 135.835 31.143 134.797 30.2692C133.759 29.3681 132.489 28.9175 130.988 28.9175C129.568 28.9175 128.366 29.3544 127.383 30.2282C126.427 31.0747 125.84 32.2626 125.622 33.7917H136.394ZM158.275 24.2481C160.978 24.2481 163.163 25.1082 164.828 26.8285C166.494 28.5215 167.327 30.8972 167.327 33.9556V47.2676H161.592V34.7338C161.592 32.9316 161.142 31.5526 160.241 30.5969C159.34 29.6138 158.111 29.1223 156.554 29.1223C154.971 29.1223 153.714 29.6138 152.786 30.5969C151.885 31.5526 151.434 32.9316 151.434 34.7338V47.2676H145.7V24.5757H151.434V27.402C152.199 26.4189 153.168 25.6543 154.342 25.1082C155.544 24.5348 156.855 24.2481 158.275 24.2481ZM170.486 35.8397C170.486 33.546 170.937 31.5116 171.838 29.7367C172.766 27.9618 174.009 26.5964 175.565 25.6407C177.149 24.685 178.91 24.2071 180.849 24.2071C182.542 24.2071 184.017 24.5484 185.273 25.2311C186.556 25.9138 187.58 26.7739 188.345 27.8116V24.5757H194.12V47.2676H188.345V43.9498C187.607 45.0148 186.583 45.9022 185.273 46.6122C183.989 47.2949 182.501 47.6362 180.808 47.6362C178.897 47.6362 177.149 47.1447 175.565 46.1617C174.009 45.1786 172.766 43.7996 171.838 42.0247C170.937 40.2225 170.486 38.1608 170.486 35.8397ZM188.345 35.9217C188.345 34.529 188.072 33.3412 187.526 32.3581C186.979 31.3478 186.242 30.5832 185.314 30.0644C184.385 29.5182 183.389 29.2452 182.324 29.2452C181.259 29.2452 180.276 29.5046 179.374 30.0234C178.473 30.5422 177.736 31.3068 177.163 32.3172C176.617 33.3002 176.343 34.4744 176.343 35.8397C176.343 37.2051 176.617 38.4066 177.163 39.4442C177.736 40.4546 178.473 41.2328 179.374 41.7789C180.303 42.3251 181.286 42.5981 182.324 42.5981C183.389 42.5981 184.385 42.3387 185.314 41.8199C186.242 41.2738 186.979 40.5092 187.526 39.5261C188.072 38.5158 188.345 37.3143 188.345 35.9217ZM204.636 42.721H214.057V47.2676H198.902V18.6775H204.636V42.721ZM215.408 35.8397C215.408 33.546 215.858 31.5116 216.759 29.7367C217.688 27.9618 218.93 26.5964 220.487 25.6407C222.071 24.685 223.832 24.2071 225.771 24.2071C227.464 24.2071 228.938 24.5484 230.194 25.2311C231.478 25.9138 232.502 26.7739 233.266 27.8116V24.5757H239.042V47.2676H233.266V43.9498C232.529 45.0148 231.505 45.9022 230.194 46.6122C228.911 47.2949 227.423 47.6362 225.73 47.6362C223.818 47.6362 222.071 47.1447 220.487 46.1617C218.93 45.1786 217.688 43.7996 216.759 42.0247C215.858 40.2225 215.408 38.1608 215.408 35.8397ZM233.266 35.9217C233.266 34.529 232.993 33.3412 232.447 32.3581C231.901 31.3478 231.164 30.5832 230.235 30.0644C229.307 29.5182 228.31 29.2452 227.245 29.2452C226.18 29.2452 225.197 29.5046 224.296 30.0234C223.395 30.5422 222.658 31.3068 222.084 32.3172C221.538 33.3002 221.265 34.4744 221.265 35.8397C221.265 37.2051 221.538 38.4066 222.084 39.4442C222.658 40.4546 223.395 41.2328 224.296 41.7789C225.225 42.3251 226.208 42.5981 227.245 42.5981C228.31 42.5981 229.307 42.3387 230.235 41.8199C231.164 41.2738 231.901 40.5092 232.447 39.5261C232.993 38.5158 233.266 37.3143 233.266 35.9217ZM249.558 27.8935C250.295 26.8012 251.305 25.9138 252.589 25.2311C253.899 24.5484 255.388 24.2071 257.053 24.2071C258.992 24.2071 260.74 24.685 262.296 25.6407C263.88 26.5964 265.122 27.9618 266.023 29.7367C266.952 31.4843 267.416 33.5187 267.416 35.8397C267.416 38.1608 266.952 40.2225 266.023 42.0247C265.122 43.7996 263.88 45.1786 262.296 46.1617C260.74 47.1447 258.992 47.6362 257.053 47.6362C255.36 47.6362 253.872 47.3085 252.589 46.6532C251.332 45.9705 250.322 45.0967 249.558 44.0317V47.2676H243.823V16.9572H249.558V27.8935ZM261.559 35.8397C261.559 34.4744 261.272 33.3002 260.699 32.3172C260.153 31.3068 259.415 30.5422 258.487 30.0234C257.586 29.5046 256.603 29.2452 255.538 29.2452C254.5 29.2452 253.517 29.5182 252.589 30.0644C251.687 30.5832 250.95 31.3478 250.377 32.3581C249.831 33.3685 249.558 34.5563 249.558 35.9217C249.558 37.287 249.831 38.4748 250.377 39.4852C250.95 40.4955 251.687 41.2738 252.589 41.8199C253.517 42.3387 254.5 42.5981 255.538 42.5981C256.603 42.5981 257.586 42.3251 258.487 41.7789C259.415 41.2328 260.153 40.4546 260.699 39.4442C261.272 38.4339 261.559 37.2324 261.559 35.8397ZM279.447 47.6362C277.591 47.6362 275.925 47.3085 274.45 46.6532C272.976 45.9705 271.802 45.0557 270.928 43.9089C270.081 42.762 269.617 41.4922 269.535 40.0996H275.31C275.42 40.9734 275.843 41.697 276.58 42.2705C277.345 42.8439 278.287 43.1306 279.406 43.1306C280.499 43.1306 281.345 42.9122 281.946 42.4753C282.574 42.0384 282.888 41.4786 282.888 40.7959C282.888 40.0586 282.506 39.5125 281.741 39.1575C281.004 38.7752 279.816 38.3656 278.178 37.9287C276.485 37.5191 275.092 37.0958 274 36.6589C272.935 36.222 272.006 35.553 271.214 34.6519C270.45 33.7508 270.068 32.5356 270.068 31.0065C270.068 29.7503 270.423 28.6035 271.133 27.5658C271.87 26.5282 272.907 25.709 274.246 25.1082C275.611 24.5075 277.208 24.2071 279.038 24.2071C281.741 24.2071 283.898 24.8898 285.51 26.2551C287.121 27.5931 288.008 29.409 288.172 31.7028H282.683C282.601 30.8017 282.219 30.0917 281.536 29.5729C280.881 29.0267 279.994 28.7537 278.874 28.7537C277.836 28.7537 277.031 28.9448 276.457 29.3271C275.911 29.7094 275.638 30.2419 275.638 30.9245C275.638 31.6891 276.02 32.2762 276.785 32.6858C277.55 33.0681 278.737 33.4641 280.349 33.8737C281.987 34.2833 283.339 34.7065 284.404 35.1434C285.469 35.5803 286.383 36.263 287.148 37.1914C287.94 38.0925 288.349 39.294 288.377 40.7959C288.377 42.1066 288.008 43.2808 287.271 44.3185C286.561 45.3561 285.523 46.1753 284.158 46.7761C282.82 47.3495 281.25 47.6362 279.447 47.6362Z" fill="#0A0F14"/>
<defs>
<clipPath id="clip0_778_4387">
<rect width="65.536" height="65.536" fill="white"/>
</clipPath>
</defs>
</svg>
